<?xml version="1.0" encoding="utf-8"?>
<!-- Generator: Adobe Illustrator 27.7.0, SVG Export Plug-In . SVG Version: 6.00 Build 0)  -->
<svg version="1.1" id="Layer_1" xmlns="http://www.w3.org/2000/svg" xmlns:xlink="http://www.w3.org/1999/xlink" x="0px" y="0px"
	 viewBox="0 0 900 900" style="enable-background:new 0 0 900 900;" xml:space="preserve">
<style type="text/css">
	.st0{fill:none;stroke:#E6E1FF;stroke-width:5;stroke-miterlimit:10;}
	.st1{fill:#E6E1FF;stroke:#E6E1FF;stroke-miterlimit:10;}
	.st2{fill:none;stroke:#000000;stroke-width:0.5;stroke-miterlimit:10;}
	.st3{fill:#E6E1FF;}
	.st4{fill:none;}
	.st5{fill:#E6E1FF;stroke:#E6E1FF;stroke-width:0.5;stroke-miterlimit:10;}
	.st6{fill:#FFFFFF;}
</style>
<path class="st0" d="M726,50.8h124l-250,800c-50.2,0-100.4,0-150.6,0c-49.8,0-99.6,0-149.4,0c-83.3-266.4-166.7-533.6-250-800
	c49.6-0.3,99.2,0.3,148.8,0c50.4-0.3,100.8-0.6,151.2-0.8c62.5,200.3,125.1,400.5,187.6,600.8L726,50.8z"/>
<g>
	<path class="st1" d="M537.6,50.8c-5.3,100.4-9.6,104.7-110,110c100.4,5.3,104.7,9.6,110,110c5.3-100.4,9.6-104.7,110-110
		C547.2,155.5,542.9,151.2,537.6,50.8z M534.2,123.9c0-4.9,0.9-9.6,2.5-13.9c3.4,26.6,24.2,47.7,50.6,51.7c-4.1,1.4-8.5,2.2-13,2.2
		C552.1,163.9,534.2,146,534.2,123.9z"/>
</g>
<path class="st2" d="M310,844"/>
<path class="st2" d="M60,50.8"/>
<path class="st3" d="M188.6,240.8h60l-56-180H63l56,180h60l-28.1-90.2h9.6L188.6,240.8z M81.8,74.1H184l7.8,24.6
	c0,0-6.5-14.3-14.9-19.1C170.9,76.1,81.8,74.1,81.8,74.1z"/>
<path class="st3" d="M378,180.8h-66l-3.2-10H358l-19-40l-42.5,0.9l-3.5-10.9h66l-19-60H212.2l59.5,180h125L378,180.8z M230.6,74
	h102.2l7.8,24.6c0,0-6.5-14.3-14.9-19.1C319.7,76,230.6,74,230.6,74z M332.6,141.2l9.1,19.2c-0.5-0.5-8-9.1-16.1-13.7
	c-6-3.5-31.2-5.5-31.2-5.5H332.6z"/>
<path class="st3" d="M441.8,380.8h-66l-3.2-10h49.2l-19-40l-42.5,0.9l-3.5-10.9h66l-19-60H276l59.5,180h125L441.8,380.8z M294.4,274
	h102.2l7.8,24.6c0,0-6.5-14.3-14.9-19.1C383.5,276,294.4,274,294.4,274z M395.3,342.8l9.1,19.2c-0.5-0.5-8-9.1-16.1-13.7
	c-6-3.4-31.2-5.5-31.2-5.5H395.3z"/>
<path class="st3" d="M399.4,720.8l-19-60H250.5l56,180h80l-37.3-120H399.4z M269,674h102.2l7.8,24.6c0,0-6.5-14.3-14.9-19.1
	C358.1,676,269,674,269,674z"/>
<g>
	<polygon class="st4" points="269.7,495.8 262.7,461.2 257.6,460.8 262.7,461.2 	"/>
	<path class="st4" d="M310.7,474h-38.2c0,0,25.2,2,31.2,5.5c8.1,4.7,15.7,21.9,16.1,23L310.7,474z"/>
	<polygon class="st3" points="248.1,461.2 248,460.8 188,460.8 244,640.8 304,640.8 262,505.7 243.7,463.1 	"/>
	<path class="st3" d="M374,640.8l-56.4-180h-60l5.1,0.4l7,34.5l2.1,10.6l0,0l41.8,134.4L374,640.8z M303.7,479.5
		c-6-3.4-31.2-5.5-31.2-5.5h38.2l9.1,28.5C319.3,501.4,311.8,484.2,303.7,479.5z"/>
	<polygon class="st5" points="269.7,495.8 262.7,461.2 257.6,460.8 265.5,501.4 248.3,461.1 248.1,461.2 243.7,463.1 262,505.7 
		280.2,548.4 271.8,506.4 271.8,506.4 	"/>
</g>
<g>
	<path class="st3" d="M509.3,600.9l-35.4-118c-4-13.2-15.9-22.1-29.7-22.1h-64.9c-9.7,0-19,4.7-24.8,12.4c-5.8,7.8-7.7,18-4.9,27.4
		c15.4,52.1,34.5,111.9,36.6,118.6c4.1,12.9,16,21.5,29.5,21.5h63.9c9.8,0,19.1-4.7,24.9-12.5S512.2,610.2,509.3,600.9z
		 M430.6,560.3L430.6,560.3L430.6,560.3L430.6,560.3c-0.5,0.4-1.1,0.5-1.6,0.5c-2.8,0-5-4.5-5-10c0-2.7,0.5-5.2,1.4-7c0,0,0,0,0-0.1
		l0,0c0.9-1.8,2.2-2.9,3.5-2.9c2.8,0,5,4.5,5,10C434,555.2,432.6,558.9,430.6,560.3z M465.6,496.8c-2,1.7-9.7-9.7-25.2-15.4
		c-4.6-1.7-6.2-1.5-26.6-3.4c-14.2-1.3-32.5-3-32.5-3.7c0-0.4,8.4-0.3,25.2-0.2c15.8,0.1,11.2,0.3,18.6,0.2c3.6,0,8.5-0.1,15.1,0.5
		c6.8,0.6,8.7,1.2,9.6,1.6c6,2.3,9.4,6.7,10.8,8.5C463.5,488.7,467.1,495.5,465.6,496.8z"/>
</g>
<g>
	<polygon class="st4" points="506.5,809 511.2,809 492.3,764.2 	"/>
	<g>
		<polygon class="st4" points="506.5,809 511.2,809 492.3,764.2 		"/>
		<path class="st3" d="M515.4,819l9.2,21.8H586l-77.4-180H399.3l56,180h61.4l-7-21.8h-4.1v-10h0.9l-14.3-44.8l18.9,44.8h10.2v10
			H515.4z M498.1,679.5c-6-3.4-80.4-5.5-80.4-5.5H502l11,24.5C512.4,697.3,506.1,684.1,498.1,679.5z"/>
		<polygon class="st3" points="521.4,819 521.4,809 511.2,809 506.5,809 505.6,809 505.6,819 509.7,819 515.4,819 		"/>
	</g>
</g>
<g>
	<ellipse class="st4" cx="217.5" cy="342.8" rx="5" ry="10"/>
	<path class="st3" d="M206,260.8c-0.8,0-1.6,0-2.4,0L186,261l-60-0.2l11,35.4l40.3,129.7l4.6,14.9h60l-4.9-15.9
		c15.8-6.2,29.3-17,38.8-30.7s15.1-30.4,15.1-48.4C291,298.9,252.9,260.8,206,260.8z M217.5,352.8c-2.8,0-5-4.5-5-10s2.2-10,5-10
		s5,4.5,5,10S220.3,352.8,217.5,352.8z M261,307.1c-1.4,1.9-16.2-10.8-44.9-20.5c-10.1-3.4-20.4-5.9-21.1-6.1
		c-16.8-4.1-28.2-5.1-28.1-5.8c0.1-0.6,8.2-0.2,24.2,0.6c18.9,1,21.9,1.5,25.1,2.1c11.4,2.5,19.4,6.9,21.4,7.9
		C251.6,293.2,262.3,305.3,261,307.1z"/>
</g>
<path class="st6" d="M530.8,466.8"/>
<g>
	<path class="st3" d="M749,81.8l-178.6,569l29.6,92l211-661L749,81.8L749,81.8z M760.5,95h35.1L602.5,700.2
		c3.3-10.9,142.5-476,176.9-598.3C780.5,98.2,760.5,95,760.5,95z M653.4,501.4l108.7-380.1l3,3.1l-40.9,115.8L586,674L653.4,501.4z"
		/>
	<path class="st3" d="M759.1,91L603.2,717.8l198.4-626L759.1,91z M602.5,700.2c3.3-10.9,142.5-476,176.9-598.3
		c1-3.7-18.9-6.9-18.9-6.9h35.1L602.5,700.2z"/>
</g>
</svg>
